<?xml version="1.0" encoding="utf-8"?>
<!-- Generator: Adobe Illustrator 21.0.2, SVG Export Plug-In . SVG Version: 6.00 Build 0)  -->
<svg version="1.1" id="圖層_1" xmlns="http://www.w3.org/2000/svg" xmlns:xlink="http://www.w3.org/1999/xlink" x="0px" y="0px"
	 viewBox="0 0 45 39.6" style="enable-background:new 0 0 45 39.6;" xml:space="preserve">
<style type="text/css">
	.st0{fill:#EAEAEA;}
</style>
<g>
	<rect x="18.5" y="21.1" class="st0" width="7.9" height="2.6"/>
	<path class="st0" d="M40.3,21c-0.5,1.6-2,2.7-3.8,2.7h-7.4V25c0,0.7-0.6,1.3-1.3,1.3H17.2c-0.7,0-1.3-0.6-1.3-1.3v-1.3H8.5
		c-1.7,0-3.2-1.1-3.8-2.7L0,6.8v28.8c0,2.2,1.8,4,4,4H41c2.2,0,4-1.8,4-4V6.8L40.3,21z"/>
	<path class="st0" d="M8.5,21.1h7.4v-1.3c0-0.7,0.6-1.3,1.3-1.3h10.5c0.7,0,1.3,0.6,1.3,1.3v1.3h7.4c0.6,0,1.1-0.4,1.3-0.9l5-14.9
		h-11V4c0-2.2-1.8-4-4-4H17.2c-2.2,0-4,1.8-4,4v1.3h-11l5,14.9C7.4,20.7,7.9,21.1,8.5,21.1z M15.9,4c0-0.7,0.6-1.3,1.3-1.3h10.5
		c0.7,0,1.3,0.6,1.3,1.3v1.3H15.9V4z"/>
</g>
</svg>
