<?xml version="1.0" encoding="utf-8"?>
<!-- Generator: Adobe Illustrator 21.0.2, SVG Export Plug-In . SVG Version: 6.00 Build 0)  -->
<svg version="1.1" id="圖層_1" xmlns="http://www.w3.org/2000/svg" xmlns:xlink="http://www.w3.org/1999/xlink" x="0px" y="0px"
	 viewBox="0 0 45 45" style="enable-background:new 0 0 45 45;" xml:space="preserve">
<style type="text/css">
	.st0{fill:#EFEFEF;}
</style>
<g>
	<path class="st0" d="M43.8,10.5c1.5-1.5,1.5-4.1,0-5.6l-3.7-3.7c-1.5-1.5-4-1.5-5.6,0L33.6,2l4.7,4.7c0.5,0.5,0.5,1.3,0,1.9
		c-0.5,0.5-1.3,0.5-1.9,0l-4.7-4.7l-1.9,1.9l2.8,2.8c0.5,0.5,0.5,1.3,0,1.9c-0.5,0.5-1.3,0.5-1.9,0L28,7.6l-3.7,3.7l9.3,9.3
		L43.8,10.5z"/>
	<path class="st0" d="M7.5,28.1l2.8,2.8c0.5,0.5,0.5,1.3,0,1.9s-1.3,0.5-1.9,0L5.7,30l-1.9,1.9l4.7,4.7c0.5,0.5,0.5,1.3,0,1.9
		s-1.3,0.5-1.9,0l-4.7-4.7l-0.8,0.8c-1.5,1.5-1.5,4.1,0,5.6l3.7,3.7c1.5,1.5,4.1,1.5,5.6,0l10.1-10.1l-9.3-9.3L7.5,28.1z"/>
	<path class="st0" d="M5.1,13.8l8.7-8.7L1.8,0.1C1.3-0.1,0.8,0,0.4,0.4C0,0.8-0.1,1.3,0.1,1.8L5.1,13.8z"/>
	<polygon class="st0" points="36.4,34.5 40.1,30.8 15.9,6.7 12.2,10.4 	"/>
	<polygon class="st0" points="10.3,12.3 6.6,16 30.8,40.1 34.5,36.4 	"/>
	<path class="st0" d="M41.9,32.6L32.6,42l1.9,1.9c1.5,1.5,4,1.5,5.6,0c0,0,0,0,0,0l3.7-3.7c1.5-1.5,1.5-4,0-5.6L41.9,32.6z"/>
</g>
</svg>
