<?xml version="1.0" encoding="utf-8"?>
<!-- Generator: Adobe Illustrator 21.0.2, SVG Export Plug-In . SVG Version: 6.00 Build 0)  -->
<svg version="1.1" id="圖層_1" xmlns="http://www.w3.org/2000/svg" xmlns:xlink="http://www.w3.org/1999/xlink" x="0px" y="0px"
	 viewBox="0 0 38.4 36" style="enable-background:new 0 0 38.4 36;" xml:space="preserve">
<style type="text/css">
	.st0{fill:#EFEFEF;}
</style>
<g>
	<path class="st0" d="M24.9,32.6c0,1.9,1.5,3.4,3.4,3.4H35c1.9,0,3.4-1.5,3.4-3.4v-1.1H24.9V32.6z"/>
	<rect x="24.9" y="20.2" class="st0" width="13.5" height="9"/>
	<path class="st0" d="M35,13.5h-6.7c-1.9,0-3.4,1.5-3.4,3.4V18h13.6v-1.1C38.4,15,36.9,13.5,35,13.5z"/>
	<path class="st0" d="M35,0H3.4C1.5,0,0,1.5,0,3.4v19.1h22.6c0-0.3,0-5.6,0-5.6c0-3.1,2.6-5.6,5.6-5.6H35c1.3,0,2.4,0.4,3.4,1.2v-9
		C38.4,1.5,36.9,0,35,0z"/>
	<path class="st0" d="M22.6,24.7H0v1.1c0,1.9,1.5,3.4,3.4,3.4h19.3L22.6,24.7L22.6,24.7z"/>
	<path class="st0" d="M22.6,31.5H12.4l-0.8,2.2H7.9c-0.6,0-1.1,0.5-1.1,1.1s0.5,1.1,1.1,1.1h15.9c-0.7-0.9-1.2-2.1-1.2-3.4
		C22.6,32.5,22.6,31.5,22.6,31.5z"/>
</g>
</svg>
